<?xml version="1.0" encoding="iso-8859-1"?>
<!-- Generator: Adobe Illustrator 19.0.0, SVG Export Plug-In . SVG Version: 6.00 Build 0)  -->
<svg version="1.1" id="Capa_1" xmlns="http://www.w3.org/2000/svg" xmlns:xlink="http://www.w3.org/1999/xlink" x="0px" y="0px"
	 viewBox="0 0 512.001 512.001" style="enable-background:new 0 0 512.001 512.001;" xml:space="preserve">
<g>
	<g>
		<path d="M255.322,115.047c-15.263,0-27.679,12.416-27.679,27.678c0,15.263,12.416,27.679,27.679,27.679
			c15.262,0,27.678-12.416,27.678-27.679C283,127.463,270.584,115.047,255.322,115.047z M255.322,155.202
			c-6.88,0-12.478-5.597-12.478-12.478s5.597-12.477,12.478-12.477c6.881,0,12.477,5.596,12.477,12.477
			S262.202,155.202,255.322,155.202z"/>
	</g>
</g>
<g>
	<g>
		<path d="M270.87,30.628c4.198,0,7.6-3.402,7.6-7.6V9.862c0-4.198-3.402-7.6-7.6-7.6h-31.099c-4.198,0-7.6,3.402-7.6,7.6v54.72
			c0,4.198,3.403,7.601,7.6,7.601h31.099c4.198,0,7.6-3.402,7.6-7.6v-9.121c0-4.198-3.402-7.6-7.6-7.6c-4.198,0-7.6,3.402-7.6,7.6
			v1.52h-15.898v-39.52h15.898v5.566C263.27,27.226,266.672,30.628,270.87,30.628z"/>
	</g>
</g>
<g>
	<g>
		<path d="M170.511,294.524h-54.432v-9.204h54.432c4.198,0,7.6-3.402,7.6-7.6c0-4.198-3.402-7.6-7.6-7.6h-62.033
			c-4.198,0-7.6,3.402-7.6,7.6v24.404c0,4.198,3.402,7.6,7.6,7.6h62.033c4.198,0,7.6-3.402,7.6-7.6S174.709,294.524,170.511,294.524
			z"/>
	</g>
</g>
<g>
	<g>
		<path d="M408.201,270.12h-62.033c-4.198,0-7.6,3.402-7.6,7.6c0,4.198,3.402,7.6,7.6,7.6H400.6v9.204h-54.432
			c-4.198,0-7.6,3.402-7.6,7.6s3.402,7.6,7.6,7.6h62.033c4.197,0,7.6-3.403,7.6-7.6V277.72
			C415.801,273.522,412.399,270.12,408.201,270.12z"/>
	</g>
</g>
<g>
	<g>
		<path d="M268.52,254.613h-20.981c-4.198,0-7.6,3.402-7.6,7.6v55.42c0,4.198,3.402,7.6,7.6,7.6h20.981c4.198,0,7.6-3.402,7.6-7.6
			v-55.42C276.121,258.015,272.719,254.613,268.52,254.613z M260.92,310.032h-5.78v-40.219h5.78V310.032z"/>
	</g>
</g>
<g>
	<g>
		<path d="M377.184,447.353H60.803V317.261c0-4.198-3.402-7.6-7.6-7.6c-20.955,0-38.002-17.047-38.002-38.002v-92.346
			c0-1.397,1.136-2.534,2.534-2.534H98.62c4.198,0,7.6-3.402,7.6-7.6s-3.402-7.6-7.6-7.6H17.734C7.956,161.578,0,169.534,0,179.312
			v92.346v183.296v1.583c0,29.336,23.867,53.203,53.203,53.203c4.198,0,7.6-3.402,7.6-7.6v-39.585h316.381
			c4.198,0,7.6-3.402,7.6-7.6C384.784,450.755,381.382,447.353,377.184,447.353z M45.602,493.775
			c-17.325-3.531-30.402-18.887-30.402-37.238v-1.583V308.857c7.988,8.159,18.572,13.764,30.402,15.463V493.775z"/>
	</g>
</g>
<g>
	<g>
		<path d="M458.797,73.985c-4.198,0-7.6,3.402-7.6,7.6v79.994H322.513c1.686-6.001,2.608-12.32,2.608-18.853
			c0-38.487-31.312-69.8-69.799-69.8c-38.487,0-69.8,31.312-69.8,69.8c0,6.533,0.922,12.852,2.608,18.853H136.5
			c-4.198,0-7.6,3.402-7.6,7.6s3.402,7.6,7.6,7.6h57.925c2.371,4.224,5.17,8.173,8.336,11.798l-33.085,168.517
			c-4.086,20.686,5.165,41.326,22.76,52.143l-2.223,13.152c-0.699,4.139,2.09,8.062,6.228,8.762
			c0.429,0.072,0.855,0.106,1.276,0.106c3.641,0,6.859-2.625,7.486-6.335l3.117-18.439l38.42-194.505
			c2.815,0.347,5.675,0.546,8.582,0.546c4.735,0,9.359-0.478,13.831-1.381l38.612,195.473c0.204,1.036,0.627,1.996,1.213,2.843
			l2.614,15.462c0.627,3.71,3.844,6.335,7.486,6.335c0.421,0,0.847-0.034,1.276-0.106c4.139-0.699,6.927-4.622,6.228-8.762
			l-2.292-13.564c17.162-10.925,26.127-31.308,22.091-51.743L311.823,183.64c1.593-2.194,3.061-4.483,4.395-6.859h134.979v89.685
			c0,4.198,3.402,7.6,7.6,7.6c20.955,0,38.002,17.047,38.002,38.002v132.754c0,1.397-1.136,2.533-2.533,2.533h-75.168
			c-4.198,0-7.6,3.402-7.6,7.6s3.402,7.6,7.6,7.6h75.168c9.778,0,17.734-7.956,17.734-17.734V312.068V169.181v-41.992
			C512,97.852,488.134,73.985,458.797,73.985z M195.549,392.695c-9.015-8.003-13.397-20.32-10.958-32.663l31.356-159.711
			c4.916,3.37,10.282,6.126,15.989,8.162L195.549,392.695z M255.322,197.324c-30.106,0-54.599-24.494-54.599-54.599
			c0-30.106,24.494-54.599,54.599-54.599c30.106,0,54.598,24.494,54.598,54.599C309.92,172.831,285.428,197.324,255.322,197.324z
			 M331.468,360.04c2.437,12.335-1.945,24.652-10.959,32.655l-36.788-186.233c5.508-2.464,10.64-5.615,15.284-9.354L331.468,360.04z
			 M496.799,169.18v105.689c-7.988-8.159-18.572-13.765-30.402-15.463V89.949c17.325,3.532,30.402,18.888,30.402,37.239V169.18z"/>
	</g>
</g>
<g>
</g>
<g>
</g>
<g>
</g>
<g>
</g>
<g>
</g>
<g>
</g>
<g>
</g>
<g>
</g>
<g>
</g>
<g>
</g>
<g>
</g>
<g>
</g>
<g>
</g>
<g>
</g>
<g>
</g>
</svg>
