<svg width="100" height="125" xmlns="http://www.w3.org/2000/svg">

 <g>
  <title>background</title>
  <rect fill="none" id="canvas_background" height="402" width="582" y="-1" x="-1"/>
 </g>
 <g>
  <title>Layer 1</title>
  <path stroke="null" id="svg_1" d="m97.593503,122.342201l-97.408231,0l0,-4.247783l97.408231,0l0,4.247783zm-48.869926,-121.021501c-2.130228,9.080077 -5.656558,17.429515 -9.822083,25.467801c-3.028898,5.84889 -5.974257,11.745649 -8.523442,17.898131c-2.093521,5.056524 -2.807394,10.363734 -1.846704,15.885095c1.725193,9.937948 9.047455,17.76838 17.626589,18.941181c9.086693,1.235787 17.597477,-4.044968 21.442772,-13.421079c3.003583,-7.326544 2.606143,-14.626633 -0.401237,-21.825945c-2.68715,-6.429622 -5.842621,-12.565728 -8.967714,-18.71947c-2.911184,-5.735515 -5.565425,-11.609599 -7.456429,-17.909469c-0.654384,-2.170501 -1.232823,-4.361158 -1.898599,-6.704241c-0.093664,0.234308 -0.131636,0.309892 -0.153154,0.387994zm25.474129,82.329137c-3.62126,2.173021 -7.279227,5.216509 -10.017006,8.529578c-0.703747,0.806222 -1.280921,1.72078 -1.868221,2.533301c-0.556922,0.849053 -1.1746,1.583471 -1.574571,2.4489c-0.846775,1.667872 -1.689753,3.074982 -2.1682,4.393911c-0.96702,2.639118 -1.493564,4.231406 -1.493564,4.231406s1.323956,-1.093439 3.388366,-2.801622c1.012586,-0.830157 2.399829,-1.601107 3.750365,-2.508107c0.651852,-0.478694 1.493564,-0.788586 2.258067,-1.192957c0.791083,-0.366579 1.539131,-0.806222 2.377045,-1.118633c3.30989,-1.340344 6.848878,-2.113814 9.886635,-2.549677c3.107373,-0.313671 5.667949,-0.488772 7.258975,-0.685289c3.12003,-0.526564 5.97046,-1.462537 8.22726,-2.752493c2.241612,-1.291215 3.847826,-2.94775 4.21742,-5.009915c0.369594,-2.055866 -1.069544,-4.231406 -3.812386,-5.701502c-2.711199,-1.478914 -6.770402,-2.229708 -11.147305,-1.491511c-2.180857,0.289736 -5.650229,1.63134 -9.282881,3.674609zm-53.66452,17.764601c2.789674,-0.195257 5.957802,-0.192737 8.984168,0.217932c3.08459,0.311151 5.826166,1.339085 7.945002,2.253643c0.994866,0.505149 1.783417,1.022894 2.373248,1.355461c0.583503,0.351462 0.911327,0.546719 0.911327,0.546719s-0.143028,-0.343904 -0.398706,-0.959908c-0.277195,-0.610965 -0.641726,-1.551978 -1.220166,-2.650455c-1.250544,-2.070983 -3.306093,-5.03007 -6.270438,-7.399608c-5.78946,-5.062823 -14.144559,-8.034507 -17.759491,-8.267556c-7.399471,-0.526564 -13.042106,3.614143 -12.415569,7.780044c0.611349,4.155823 5.59074,6.990198 11.286535,7.408426c1.429012,0.13605 3.803526,-0.144868 6.564088,-0.284697zm-1.531536,-24.509153c1.741648,0.279658 3.30989,0.783547 4.506007,1.228229c1.144222,0.496331 1.908724,0.876767 1.908724,0.876767s-0.097461,-0.185179 -0.260741,-0.508928c-0.179734,-0.31871 -0.422755,-0.823858 -0.784754,-1.384435c-0.730328,-1.095958 -1.870752,-2.620222 -3.351659,-3.968125c-2.911184,-2.823037 -6.966591,-5.038888 -8.858861,-5.48609c-3.833903,-0.910779 -7.245052,0.719301 -7.391877,3.076241c-0.146825,2.336784 2.256801,4.455637 5.402146,5.219029c1.578368,0.374137 5.408474,0.289736 8.831015,0.947311z" fill="#000000"/>
 </g>
</svg>