<?xml version="1.0" standalone="no"?>
<!DOCTYPE svg PUBLIC "-//W3C//DTD SVG 20010904//EN"
 "http://www.w3.org/TR/2001/REC-SVG-20010904/DTD/svg10.dtd">
<svg version="1.0" xmlns="http://www.w3.org/2000/svg"
 width="647.000000pt" height="647.000000pt" viewBox="0 0 647.000000 647.000000"
 preserveAspectRatio="xMidYMid meet">
<metadata>
Created by potrace 1.11, written by Peter Selinger 2001-2013
</metadata>
<g transform="translate(0.000000,647.000000) scale(0.100000,-0.100000)"
fill="#000000" stroke="none">
<path d="M3173 5977 c-35 -23 -98 -64 -140 -91 -43 -28 -114 -73 -158 -101
-44 -29 -188 -121 -320 -205 -132 -84 -319 -204 -415 -265 -96 -62 -258 -165
-360 -230 -102 -65 -207 -133 -235 -150 -52 -34 -298 -191 -712 -455 -239
-153 -263 -173 -263 -225 0 -35 33 -61 265 -208 116 -73 252 -161 304 -194
l94 -61 -74 -48 c-41 -26 -180 -114 -309 -196 -129 -83 -245 -161 -257 -174
-13 -14 -23 -38 -23 -54 0 -16 10 -40 23 -53 12 -14 141 -100 287 -192 146
-93 285 -181 309 -198 l43 -29 -119 -78 c-66 -42 -124 -79 -129 -81 -5 -2 -62
-39 -127 -81 -65 -43 -120 -78 -122 -78 -2 0 -37 -22 -78 -49 -72 -48 -87 -67
-87 -117 0 -11 12 -32 28 -46 21 -19 331 -222 456 -298 14 -8 127 -80 251
-160 124 -80 237 -152 250 -160 32 -19 1365 -871 1510 -965 212 -137 201 -134
291 -77 57 38 730 468 1254 802 140 89 284 181 320 204 36 24 108 70 160 103
52 33 158 101 235 150 77 50 217 139 310 198 266 169 309 198 318 209 13 20
19 56 13 81 -7 27 -11 30 -411 285 -132 84 -241 154 -243 155 -4 3 35 29 291
194 87 55 162 101 166 101 5 0 14 6 20 14 7 8 43 33 81 55 38 23 76 51 85 63
22 32 19 73 -7 102 -13 13 -138 98 -278 187 -140 89 -279 177 -309 196 l-54
35 104 67 c57 37 199 127 314 201 116 74 218 143 228 153 20 23 22 75 4 98 -7
9 -53 42 -102 74 -50 32 -112 72 -140 90 -27 18 -351 225 -720 460 -682 436
-719 459 -908 581 -59 38 -115 74 -125 79 -9 6 -59 38 -112 72 -442 285 -554
353 -584 352 -18 -1 -56 -18 -93 -42z m645 -493 c290 -186 777 -497 1082 -692
305 -195 615 -393 688 -440 106 -68 130 -88 120 -97 -7 -6 -137 -90 -288 -187
-315 -200 -716 -456 -1554 -992 -501 -321 -593 -376 -611 -368 -11 5 -54 31
-95 58 -41 27 -83 53 -93 59 -10 5 -70 44 -135 86 -202 131 -800 514 -819 524
-10 6 -43 27 -73 46 -30 20 -219 141 -420 269 -201 128 -404 258 -452 289 -48
31 -146 94 -219 140 -120 78 -130 86 -113 98 11 8 82 54 159 102 77 49 221
141 320 204 99 64 324 208 500 320 337 215 915 584 1025 655 350 224 427 271
438 267 6 -2 249 -156 540 -341z m-1459 -2328 c490 -314 898 -571 907 -572 15
-2 69 29 279 164 104 67 133 86 605 387 239 153 547 350 684 437 l248 159 77
-48 c42 -27 185 -119 318 -204 134 -84 243 -156 242 -159 0 -3 -120 -81 -267
-175 -147 -93 -303 -192 -347 -221 -107 -68 -1172 -749 -1305 -834 -58 -37
-200 -128 -317 -203 l-212 -135 -148 94 c-81 51 -153 97 -158 101 -6 5 -22 15
-36 23 -14 8 -222 141 -463 295 -240 154 -510 327 -601 385 -91 58 -228 146
-305 195 -77 50 -187 119 -244 155 -56 36 -147 94 -202 129 -160 103 -196 127
-247 158 l-48 30 33 24 c18 14 103 69 188 123 85 54 184 117 220 141 138 90
195 124 201 122 4 -1 408 -258 898 -571z m3126 -625 c124 -80 228 -148 230
-151 2 -4 -125 -90 -283 -190 -158 -101 -325 -208 -372 -239 -47 -30 -188
-121 -315 -201 -297 -190 -912 -583 -1227 -784 l-247 -158 -248 158 c-136 87
-329 210 -429 273 -99 64 -188 121 -197 126 -9 6 -69 44 -134 86 -65 42 -413
264 -773 494 -360 230 -659 421 -663 425 -9 8 24 30 389 263 127 81 236 147
242 147 6 0 150 -88 319 -197 633 -404 1030 -658 1093 -698 255 -165 386 -245
402 -245 10 0 55 24 101 53 45 30 165 107 267 172 102 65 221 141 265 170 44
28 161 103 260 166 99 63 215 137 257 164 42 28 123 79 180 115 56 36 187 120
291 186 l189 121 89 -56 c49 -31 190 -121 314 -200z"/>
</g>
</svg>
